<?xml version="1.0" encoding="UTF-8"?>
<svg id="Capa_2" data-name="Capa 2" xmlns="http://www.w3.org/2000/svg" viewBox="0 0 182.97 254.25">
  <defs>
    <style>
      .cls-1 {
        fill: #fff;
      }
    </style>
  </defs>
  <g id="Capa_1-2" data-name="Capa 1">
    <g>
      <path class="cls-1" d="m66.38,195.54c4.21,0,7.76-3.42,7.8-7.52.03-3.64-3.78-7.58-7.39-7.64-4.07-.07-7.78,3.78-7.81,8.1-.02,3.89,3.3,7.06,7.39,7.07Z"/>
      <path class="cls-1" d="m66.85,206.06c-4.53.03-7.88,3.5-7.87,8.13.02,4.63,3.31,8.32,7.45,8.34,4.41.02,8.26-4.18,8.24-8.97-.03-4.54-3.14-7.53-7.82-7.49Z"/>
      <path class="cls-1" d="m88.42,200.53c0-4.4-3.17-7.4-7.71-7.32-4.12.07-7.49,3.47-7.52,7.57-.03,4.77,3.29,8.5,7.54,8.46,4.2-.04,7.7-4,7.69-8.71Z"/>
      <path class="cls-1" d="m47.97,197.45c-3.84.03-6.56,2.91-6.56,6.95,0,4.42,3.13,7.93,7.05,7.89,3.95-.04,7.34-3.41,7.26-7.23-.08-4.16-3.63-7.65-7.75-7.61Z"/>
      <path class="cls-1" d="m90.24,186.54c4,0,7.57-3.94,7.55-8.35-.02-4.05-3.14-6.97-7.4-6.91-4.14.05-7.38,3.33-7.31,7.38.07,4.37,3.27,7.88,7.16,7.88Z"/>
      <path class="cls-1" d="m87.53,212.5c-4.06.03-7.09,3.25-7.09,7.56,0,4.84,3.58,8.81,8.03,8.9,4.04.08,7.61-3.55,7.6-7.72-.02-4.7-4-8.77-8.54-8.73Z"/>
      <path class="cls-1" d="m48.83,179.86c-4.52-.04-7.47,3.01-7.5,7.77-.03,4.26,3.03,7.82,6.8,7.9,4.36.09,7.95-3.6,8.04-8.27.09-4.38-2.86-7.36-7.34-7.39Z"/>
      <path class="cls-1" d="m131.72,198c-4.2-.02-7.62,3.41-7.61,7.64,0,3.95,3.01,7.09,6.77,7.06,3.97-.03,7.27-3.4,7.27-7.44,0-3.87-2.99-7.25-6.42-7.26Z"/>
      <path class="cls-1" d="m143.8,176c-3.61-.05-6.52,2.93-6.56,6.73-.04,3.69,3.45,7.23,7.1,7.19,3.47-.04,5.97-2.71,5.98-6.4.01-4.29-2.74-7.46-6.52-7.52Z"/>
      <path class="cls-1" d="m129.48,195.46c3.76.01,6.8-2.99,6.82-6.75.02-4.21-3.61-8.3-7.37-8.31-3.39,0-6.8,3.65-6.79,7.28.01,3.93,3.64,7.77,7.35,7.78Z"/>
      <path class="cls-1" d="m108.05,197.16c.09-3.89-3.58-7.53-7.56-7.5-4.21.02-7.56,3.39-7.62,7.65-.05,4.11,3,7.25,7.07,7.27,4.5.02,8.02-3.2,8.11-7.41Z"/>
      <path class="cls-1" d="m112.66,175.2c-3.69.02-7.3,3.68-7.28,7.35.04,4.66,3.83,8.68,8.12,8.61,3.95-.06,7.02-3.19,7.03-7.17.02-4.73-3.64-8.81-7.87-8.79Z"/>
      <path class="cls-1" d="m182.2,147.75c-1.44-11.46-4.56-22.42-9.89-32.66-4.07-7.83-9.25-14.9-15.29-21.38-9.72-10.42-21.01-18.44-34.45-23.31-16.75-6.07-33.84-6.73-51.08-2.62-13.97,3.33-26.18,10.12-36.8,19.79-3.97,3.62-7.61,7.55-11.06,11.65-.34.41-.61,1.14-1.3.86-.65-.26-.44-.98-.46-1.53-.03-.86-.02-1.72-.02-2.57,0-28.46,0-56.92,0-85.38,0-2.5.02-5.01-.02-7.51-.05-2.85-.27-3.07-3.06-3.08C13.69,0,8.62,0,3.54,0Q.01,0,0,3.59c0,27.6,0,55.21,0,82.81C0,113.5,0,140.6,0,167.71c0,4.39.73,8.66,1.66,12.94,2.04,9.42,5.32,18.4,9.53,27.04,2.46,5.05,4.65,10.29,8.67,14.45,5.48,5.66,11.24,10.96,17.71,15.5,10.09,7.08,21.19,11.83,33.18,14.46,9.55,2.09,19.22,2.53,28.99,1.87,15.61-1.06,29.73-6.19,42.46-15.12,10.04-7.05,18.38-15.79,25.21-26.03,5.37-8.05,9.45-16.66,11.95-25.97,3.45-12.82,4.49-25.86,2.83-39.09Zm-37.23,58.32c-13.61,17.1-31.73,25.7-53.71,25.79-11.89.25-23.01-2.54-33.36-8.27-7.71-4.27-14.22-10.03-19.87-16.79-7.53-9.02-12.61-19.24-14.94-30.73-2.18-10.8-2.43-21.67-.59-32.6,1.83-10.85,5.83-20.79,12.2-29.69,7.22-10.09,16.74-17.47,28.06-22.59,8.66-3.91,17.72-6.11,27.18-6.26,16.88-.25,31.97,4.99,44.92,15.82,13.74,11.5,21.96,26.39,25.32,43.86,4.38,22.76-.9,43.45-15.22,61.46Z"/>
      <path class="cls-1" d="m110.07,207.75c-4.19,0-7.33,3.25-7.35,7.58-.02,4.16,3.29,7.62,7.32,7.67,4.2.05,8.24-3.83,8.31-7.97.07-3.88-3.81-7.29-8.28-7.28Z"/>
    </g>
  </g>
</svg>