<?xml version="1.0" encoding="UTF-8"?>
<svg id="Capa_2" data-name="Capa 2" xmlns="http://www.w3.org/2000/svg" viewBox="0 0 469.11 168.18">
  <defs>
    <style>
      .cls-1 {
        fill: #fff;
      }
    </style>
  </defs>
  <g id="Capa_1-2" data-name="Capa 1">
    <g>
      <path class="cls-1" d="m304.41,65.77c.04-.82.08-1.26.08-1.7.01-20.79.02-41.59.02-62.38,0-1.66,0-1.66,1.59-1.66,4.04,0,8.08.04,12.12-.03,1.19-.02,1.58.29,1.58,1.51,0,7.33.14,14.67.15,22,.02,27.71-.06,55.42.04,83.13.04,10.51-2.93,20.16-7.37,29.5-.46.98-1.04,1.91-1.44,2.91-2.15,5.33-6.26,9.05-10.42,12.72-7.95,7.02-17.08,11.81-27.43,14.18-7.52,1.72-15.14,2.12-22.82,1.31-14.72-1.55-26.87-8.12-37.06-18.72-8.97-9.33-14.61-20.28-16.43-33.1-2.26-15.9.29-30.91,9.22-44.47,6.88-10.45,15.96-18.54,27.5-23.58,6.15-2.69,12.69-3.92,19.38-4.4,8.21-.59,16.19.4,23.98,3.04,9.67,3.27,17.63,9.07,24.44,16.56.88.97,1.75,1.94,2.85,3.18Zm-4.66,63.08c.82-1.84,1.78-3.63,2.44-5.53,2.73-7.79,3.89-15.79,3.12-24.06-.86-9.25-3.99-17.62-9.8-24.83-6.55-8.13-15.02-13.37-25.22-15.84-7.28-1.76-14.58-2.19-21.84-.31-15.77,4.08-26.85,13.68-33.01,28.8-2.94,7.23-4.15,14.78-3.35,22.59.61,5.93,2.28,11.55,4.93,16.91,4.89,9.87,12.42,17.13,22.23,21.79,7.13,3.38,14.83,4.74,22.82,4.24,6.69-.42,12.96-2.18,18.8-5.35,5.99-3.26,11.02-7.74,15.2-13.15.69-.89,1.34-1.82,2.01-2.73-3.1,1.62-5.34,1.58-7.26-.26-1.71-1.64-2.03-4.32-.78-6.44,1.07-1.8,3.75-3.01,5.58-2.53,2.43.65,3.89,3.16,4.11,6.7Z"/>
      <path class="cls-1" d="m15.38,65.72c1.11-1.19,2.05-2.16,2.96-3.15,8.9-9.64,19.57-16.26,32.59-18.6,15.45-2.78,30.2-.88,43.51,7.86,13.97,9.18,23.57,21.79,27.41,38.23,3.76,16.08,2.25,31.73-6.11,46.15-8.28,14.27-20.23,24.44-36.26,29.21-7.16,2.13-14.53,2.45-22.01,2.05-9.51-.51-18.31-3.23-26.66-7.58-7.06-3.68-13.15-8.72-18.3-14.73-2.23-2.6-3.67-5.93-5.23-9.05-3.35-6.7-5.68-13.76-6.87-21.18-.24-1.47-.39-2.98-.39-4.47C0,74.19,0,37.94,0,1.68,0,.07,0,.06,1.63.06c3.88-.02,7.75-.03,11.63-.03,1.99,0,2,0,2,2.06.02,16.5.04,33,.06,49.51,0,4.42,0,8.83,0,13.25,0,.19.03.38.07.88Zm45.04-8.65c-1.25.09-3.22.1-5.15.38-8.62,1.23-16.35,4.6-23.36,9.74-7.14,5.23-11.83,12.22-14.75,20.44-2.42,6.82-3.42,13.9-2.58,21.12.44,3.74.93,7.54,2.02,11.13,2.79,9.19,8.04,16.74,15.66,22.76,8.57,6.77,18.29,9.92,29.03,10.04,4.95.06,9.82-.9,14.57-2.49,7.97-2.67,14.84-7.04,20.23-13.43,6.67-7.91,10.84-17.03,11.73-27.46,1.2-14-3.11-26.29-12.23-36.77-9.03-10.37-20.75-15.25-35.17-15.47Z"/>
      <path class="cls-1" d="m452.2,142.83c-1.35,1.88-2.63,3.83-4.08,5.64-5.05,6.29-11.34,10.96-18.77,14.12-6.93,2.95-14.2,4.54-21.67,4.94-7.02.37-13.92-.71-20.67-2.8-8.87-2.75-16.52-7.49-23.03-14.01-8.97-8.99-15.2-19.6-17.57-32.18-3.48-18.45-.18-35.53,11.03-50.81,6.46-8.8,14.65-15.58,24.64-20.02,6.09-2.71,12.59-4,19.21-4.62,5.84-.55,11.65-.29,17.42.72,9.39,1.64,18.01,5.17,25.46,11.17,11.35,9.13,19.44,20.51,22.96,34.8.88,3.57,1.56,7.29,1.63,10.95.27,12.91.27,25.82.32,38.73.04,9.08-.02,18.17.03,27.25,0,1.21-.31,1.52-1.54,1.49-4.5-.11-9-.11-13.5-.07-1.17.01-1.58-.28-1.57-1.52.03-7.42-.02-14.83-.04-22.25,0-.49,0-.97,0-1.46-.09-.02-.17-.03-.26-.05Zm-80.83-7.67c3.52,4.61,7.99,8.06,12.84,11.15,4.71,3.01,9.55,5.24,15.29,5.44,4.55.16,9.01.24,13.53-.64,9.51-1.86,17.29-6.54,23.56-13.79,4.8-5.55,8.38-11.87,11.51-18.49,1.78-3.77,2.88-7.63,2.63-11.78-.28-4.65-.65-9.3-1.26-13.91-.74-5.58-2.24-10.94-5.85-15.46-.96-1.2-1.88-2.44-2.86-3.63-8.18-9.88-18.76-15.1-31.48-15.89-7.66-.47-15.04.98-21.85,4.57-9.5,4.99-16.9,12.04-21.65,21.88-4.32,8.94-5.57,18.23-4.35,27.92.61,4.85,2.2,9.47,4.32,13.88.36.74.74,1.48,1.19,2.37,1.69-3.84,3.51-5.1,6.18-4.47,2.46.58,4.41,3.05,4.41,5.58,0,2.71-2.02,4.45-6.14,5.26Z"/>
      <path class="cls-1" d="m151.53,167.32c0-.57,0-1.04,0-1.52,0-38.58-.01-77.15-.05-115.73,0-1.09.35-1.32,1.35-1.31,4.37.04,8.75.03,13.12-.03.97-.01,1.08.42,1.08,1.2,0,3.67.04,7.33.04,11,0,29.58,0,59.16.02,88.73,0,1.33-.31,2.44-1.25,3.39-4.62,4.69-9.22,9.39-13.84,14.08-.07.07-.21.08-.48.18Z"/>
      <path class="cls-1" d="m159.27.28c7.02-.02,12.78,5.72,12.75,12.68-.03,6.8-5.84,12.62-12.6,12.63-7.31,0-12.82-5.63-12.85-13.07-.02-6.44,5.83-12.6,12.7-12.24Z"/>
      <path class="cls-1" d="m254.87,139.26c3.04-.02,5.2,2.31,5.2,5.61,0,3.22-2.48,5.92-5.48,5.97-3.12.05-5.86-2.72-5.86-5.91,0-3.29,2.54-5.64,6.14-5.66Z"/>
      <path class="cls-1" d="m269.65,150.62c-3.25-.03-5.94-2.78-5.89-6.02.05-2.9,2.52-5.33,5.39-5.29,3.18.05,6.1,2.97,6.09,6.11,0,3.12-2.28,5.23-5.59,5.2Z"/>
      <path class="cls-1" d="m255.3,133.26c-.02,3.25-2.39,5.7-5.53,5.71-2.71.01-5.41-2.94-5.37-5.88.04-3.23,2.42-5.39,5.93-5.39,2.95,0,4.99,2.29,4.97,5.56Z"/>
      <path class="cls-1" d="m284.09,117.29c-.03,2.8-2.45,5.07-5.3,4.99-2.86-.08-5.84-2.99-5.68-5.79.16-2.72,1.81-5.17,5.44-5.16,2.92.01,5.58,2.89,5.55,5.96Z"/>
      <path class="cls-1" d="m283.09,132.28c3.25,0,5.2,1.89,5.2,5.04,0,3.18-2.41,5.55-5.65,5.54-2.97,0-5.39-2.34-5.35-5.29.04-3.07,2.27-5.52,5.79-5.29Z"/>
      <path class="cls-1" d="m248.34,122.97c0,3.27-2.25,5.63-5.38,5.63-2.68,0-5.22-2.67-5.25-5.51-.03-3.19,2.43-5.54,5.81-5.53,2.83,0,4.81,2.22,4.82,5.41Z"/>
      <path class="cls-1" d="m272.52,133.32c-2.59-.05-4.93-2.44-4.91-5.03.02-3.02,2.68-5.78,5.5-5.71,2.89.08,5.45,2.63,5.36,5.36-.09,2.92-2.87,5.43-5.95,5.38Z"/>
      <path class="cls-1" d="m262.28,120.31c-.04,3.35-2.18,5.6-5.27,5.54-2.76-.06-5.34-2.67-5.2-5.53.14-2.96,2.09-5.29,5.88-5.29,2.73,0,4.63,2.2,4.59,5.28Z"/>
      <path class="cls-1" d="m255.28,112.34c.02,2.76-2.62,5.24-5.58,5.23-2.87,0-4.98-2.21-5.02-5.24-.04-2.99,2.39-5.49,5.32-5.46,2.96.02,5.25,2.4,5.27,5.48Z"/>
      <path class="cls-1" d="m267.54,133.99c.05,3.28-2.32,4.86-5.2,5.07-2.69.19-5.05-2.5-5.09-5.56-.04-2.76,2.02-4.95,4.68-4.97,3.09-.03,5.59,2.4,5.61,5.47Z"/>
      <path class="cls-1" d="m240.91,147.86c-2.89-.04-5.22-2.64-5.16-5.79.04-2.56,2.4-4.75,5.02-4.68,2.89.08,5.54,2.7,5.5,5.44-.03,2.66-2.6,5.07-5.36,5.03Z"/>
      <path class="cls-1" d="m284.9,116.46c-.07-2.65,2.16-4.85,4.94-4.88,2.62-.02,5.31,2.74,5.42,5.58.09,2.29-2.21,4.61-4.64,4.69-3.28.11-5.64-2.11-5.72-5.39Z"/>
      <path class="cls-1" d="m232.97,138.6c-2.52-.03-4.79-2.45-4.79-5.12,0-2.67,1.91-4.63,4.52-4.63,2.93,0,5.13,2.39,5.06,5.5-.05,2.39-2.18,4.28-4.79,4.25Z"/>
      <path class="cls-1" d="m298.8,115.61c-2.79,0-5.15-2.28-5.15-4.99,0-2.53,2.04-4.62,4.56-4.65,2.6-.04,5.15,2.48,5.15,5.09s-1.95,4.55-4.56,4.55Z"/>
      <path class="cls-1" d="m44.62,135.81c3.44,0,5.63,2,5.65,5.14.02,3.43-2.71,6.36-5.92,6.35-3.01,0-5.4-2.68-5.4-6.02,0-3.21,2.34-5.47,5.67-5.47Z"/>
      <path class="cls-1" d="m64.49,146.15c0,3.01-2.19,5.27-5.14,5.3-3.33.03-6.11-2.78-6.07-6.13.04-2.99,2.43-5.47,5.24-5.43,3.34.05,5.97,2.8,5.97,6.26Z"/>
      <path class="cls-1" d="m54.04,127.31c3.12-.03,5.44,2.14,5.46,5.11.02,3.25-2.64,6.18-5.62,6.2-2.9.02-5.34-2.67-5.37-5.92-.03-2.97,2.42-5.35,5.54-5.39Z"/>
      <path class="cls-1" d="m75.78,126.61c-3.2-.04-5.57-2.68-5.51-6.14.05-2.82,2.38-4.97,5.34-4.92,2.96.05,5.44,2.83,5.42,6.05-.02,2.84-2.33,5.04-5.26,5Z"/>
      <path class="cls-1" d="m79.47,141.81c-.03,3.13-2.64,5.8-5.68,5.8-2.91,0-5.57-2.66-5.51-5.49.07-2.85,2.53-5.33,5.25-5.27,3.42.07,5.96,2.19,5.94,4.96Z"/>
      <path class="cls-1" d="m37.73,123.61c-.11,3.35-2.67,6.11-5.59,6.03-2.8-.07-5.22-2.91-5.15-6.02.07-2.79,2.65-5.13,5.58-5.06,3.08.07,5.25,2.2,5.16,5.05Z"/>
      <path class="cls-1" d="m49.77,124.54c0,2.88-2.47,5.09-5.67,5.07-2.75-.02-5.14-2.3-5.13-4.91.01-3.25,2.38-5.65,5.56-5.62,3.06.03,5.25,2.3,5.24,5.46Z"/>
      <path class="cls-1" d="m66.9,135.46c-2.96-.03-5.18-2.18-5.14-4.97.04-3.07,2.57-5.64,5.53-5.63,2.76,0,5.23,2.55,5.22,5.35-.02,3.07-2.39,5.29-5.61,5.25Z"/>
      <path class="cls-1" d="m60.1,123.6c-2.79-.01-4.82-2.37-4.8-5.58.02-2.93,2.23-5.07,5.2-5.03,3.1.03,5.22,2,5.24,4.86.03,3.22-2.48,5.77-5.65,5.76Z"/>
      <path class="cls-1" d="m32.07,140.64c-2.78,0-4.93-2.37-4.96-5.48-.02-2.72,2.07-5.01,4.53-5,4.26.03,5.77,2.92,5.86,5.35.1,2.71-2.56,5.12-5.43,5.12Z"/>
      <path class="cls-1" d="m86.41,119.09c3,0,5.13,2.45,5.1,5.87-.02,2.67-2.02,4.54-4.87,4.54-2.69,0-5.13-2.56-5.14-5.41,0-2.9,2.06-5.01,4.91-5Z"/>
      <path class="cls-1" d="m92.79,135.71c0,2.92-2.15,5.11-5,5.12-2.76.01-5.02-2.24-5.01-4.99.02-3.07,2.35-5.29,5.59-5.3,2.54-.01,4.43,2.19,4.43,5.17Z"/>
      <path class="cls-1" d="m96.3,116.1c2.69-.01,4.87,2.32,4.92,5.26.04,2.42-2.02,4.44-4.56,4.48-2.79.03-4.99-2.21-5-5.09,0-2.65,1.97-4.64,4.64-4.65Z"/>
      <path class="cls-1" d="m415.29,138.57c2.57,2.05,3.2,4.22,2.04,6.62-1.17,2.43-3.91,3.7-6.6,3.07-2.43-.57-4.1-2.86-4.04-5.47.05-1.75.69-3.3,2.21-4.09,1.33-.69,2.92-.89,4.5-1.33-1.32-1.39-2.01-3.17-1.43-5.28.58-2.08,2.19-3.12,4.26-3.97-3.5-1.86-5.13-4.44-3.65-8.15.9-2.24,3.16-3.31,5.51-2.97,2.47.37,4.14,2.12,4.54,5.21.27,2.12-.18,4.39-3.83,5.88,3.39,1.6,4.59,4.18,3.38,7.58-.79,2.22-2.86,2.99-6.89,2.88Z"/>
      <path class="cls-1" d="m389.07,137.17c-.01,3.53-2.67,6.23-6.12,6.21-2.98,0-5.17-2.48-5.2-5.85-.03-3.04,2.56-5.75,5.45-5.72,3.68.04,5.89,2.05,5.88,5.35Z"/>
      <path class="cls-1" d="m391.4,143.72c.01-3.07,2.35-5.44,5.34-5.4,3.1.04,5.81,2.94,5.78,6.19-.02,2.88-2.41,5.34-5.17,5.34-3.47,0-5.96-2.57-5.95-6.13Z"/>
      <path class="cls-1" d="m389.81,124.67c-.02,3.32-2.57,5.96-5.75,5.94-2.79-.01-5.2-2.57-5.16-5.48.04-3.35,2.29-5.62,5.53-5.58,3.21.04,5.4,2.12,5.39,5.11Z"/>
      <path class="cls-1" d="m408.3,133.23c.01,2.65-2.19,4.8-4.98,4.85-2.9.05-5.13-2.25-5.13-5.3,0-3.02,2.08-5.32,4.79-5.32,2.97,0,5.3,2.53,5.32,5.77Z"/>
      <path class="cls-1" d="m432.08,138.82c.35,2.44-2.11,5.2-5.32,5.23-2.5.03-5.03-2.57-5.03-5.11,0-2.68,2.59-5.16,5.38-5.17,3.2,0,4.97,1.8,4.96,5.05Z"/>
      <path class="cls-1" d="m432.52,127.74c.04,2.94-1.7,4.86-4.44,4.9-3.15.05-5.5-2.25-5.56-5.44-.05-2.71,2.29-5.06,5.08-5.08,2.81-.02,4.89,2.35,4.93,5.63Z"/>
      <path class="cls-1" d="m364.22,117.96c-.01-2.73,2.05-4.87,4.72-4.88,2.49-.02,4.58,2.24,4.58,4.95,0,3.05-1.87,5.11-4.6,5.08-2.84-.03-4.68-2.05-4.7-5.14Z"/>
      <path class="cls-1" d="m442.56,125.99c0,2.85-1.74,4.63-4.55,4.63-2.71,0-4.93-2.34-4.94-5.23-.01-2.47,2.12-4.52,4.71-4.53,2.81,0,4.78,2.1,4.78,5.12Z"/>
    </g>
  </g>
</svg>