<?xml version="1.0" encoding="UTF-8"?>
<svg id="Capa_2" data-name="Capa 2" xmlns="http://www.w3.org/2000/svg" viewBox="0 0 135 135">
  <defs>
    <style>
      .cls-1 {
        fill: #fff;
      }
    </style>
  </defs>
  <g id="Capa_2-2" data-name="Capa 2">
    <g>
      <path class="cls-1" d="m69.9,57.86s.04.01.07.01c.05,0,.2-.02.48-.22.37-.26.77-.68,1.21-1.25.45-.58.92-1.3,1.39-2.14.48-.84.95-1.78,1.41-2.79.42-.99.78-1.97,1.06-2.91.28-.93.48-1.77.61-2.51h0c.13-.71.16-1.31.1-1.76-.07-.5-.22-.61-.27-.63-.02,0-.04-.01-.06-.01-.05,0-.2.02-.48.22-.37.26-.78.68-1.22,1.23-.45.56-.93,1.28-1.42,2.12-.49.84-.95,1.77-1.38,2.78-.43,1.01-.78,1.99-1.06,2.92-.28.93-.49,1.78-.62,2.53-.13.73-.16,1.33-.1,1.79.07.5.22.61.27.63Z"/>
      <path class="cls-1" d="m88.54,57.85s.04.01.07.01c.05,0,.2-.02.48-.22.37-.26.77-.68,1.21-1.25.45-.58.92-1.3,1.39-2.14.48-.85.95-1.79,1.41-2.79.42-1,.78-1.98,1.06-2.91.28-.93.49-1.78.62-2.51h0c.13-.71.16-1.3.1-1.76-.07-.5-.22-.61-.27-.63-.02,0-.04-.01-.06-.01-.05,0-.2.02-.48.22-.37.26-.78.68-1.22,1.23-.45.57-.93,1.28-1.42,2.12-.49.84-.95,1.77-1.38,2.78-.43,1.01-.78,1.99-1.06,2.92-.28.93-.48,1.78-.61,2.53-.13.73-.16,1.33-.1,1.79.07.5.22.61.27.63Z"/>
      <path class="cls-1" d="m50.41,57.76s.04.01.06.01c.05,0,.19-.02.45-.21.35-.26.73-.67,1.14-1.22.42-.57.84-1.28,1.27-2.11.43-.85.84-1.79,1.23-2.79.39-1,.71-1.98.94-2.91.23-.93.39-1.78.47-2.52h0c.08-.73.07-1.33-.02-1.78-.1-.51-.27-.63-.32-.65-.02,0-.04-.01-.06-.01-.05,0-.19.02-.45.21-.35.26-.73.68-1.14,1.24-.42.59-.85,1.3-1.27,2.14-.42.84-.84,1.78-1.24,2.79-.39,1-.71,1.98-.94,2.91-.23.92-.38,1.76-.44,2.49-.06.72-.06,1.32.02,1.78.08.51.24.62.29.64Z"/>
      <path class="cls-1" d="m67.5,0C30.22,0,0,30.22,0,67.5s30.22,67.5,67.5,67.5,67.5-30.22,67.5-67.5S104.78,0,67.5,0Zm42.84,30.47c2.3,0,4.16,1.86,4.16,4.16h0c0,2.3-1.86,4.16-4.16,4.16s-4.16-1.86-4.16-4.16,1.86-4.16,4.16-4.16Zm-61.13,11.79c1.84-1.68,3.71-2.53,5.55-2.53.78,0,1.44.16,1.96.47.51.31.91.72,1.17,1.21.18.33.31.69.39,1.07.01.07.1.08.14.02.09-.17.18-.32.27-.46.42-.69,1.01-1.13,1.75-1.29.69-.15,1.36-.14,1.99.03.65.17,1.18.49,1.57.95.42.49.51,1.06.26,1.63-.07.2-.26.64-.58,1.34-.31.69-.67,1.53-1.07,2.49-.4.95-.8,1.97-1.19,3.03-.39,1.05-.7,2.03-.91,2.91-.21.86-.29,1.57-.24,2.12.04.52.24.52.35.52.15,0,.42-.07.84-.42.23-.19.47-.41.71-.64.95-.92,1.58-1.93,2.01-3.18.56-1.66,1.15-3.3,1.76-4.88.65-1.68,1.28-3.19,1.88-4.49.32-.67.81-1.12,1.47-1.34.62-.2,1.26-.25,1.88-.13.62.12,1.17.37,1.62.75.2.17.36.35.48.54.03.05.07.06.11.01.54-.5,1.13-.96,1.77-1.37.94-.6,1.99-.91,3.15-.91.98,0,1.82.3,2.5.9.66.58,1.13,1.4,1.39,2.44.26,1.01.31,2.24.16,3.64-.15,1.39-.55,2.97-1.19,4.7-.61,1.64-1.3,3.08-2.06,4.28-.37.58-.75,1.13-1.13,1.64-.05.06.02.15.09.11.22-.12.45-.26.67-.4.36-.23.7-.48,1.04-.74,1.27-.98,2.22-2.31,2.73-3.83.07-.2.13-.4.2-.59.6-1.78,1.23-3.54,1.88-5.22.65-1.68,1.28-3.19,1.88-4.49.31-.67.81-1.12,1.47-1.34.62-.2,1.26-.25,1.88-.13.62.12,1.17.37,1.62.75.2.17.36.35.48.54.03.05.07.06.11.01.54-.5,1.13-.96,1.77-1.37.94-.6,1.99-.91,3.14-.91.98,0,1.82.3,2.5.9.66.58,1.12,1.4,1.39,2.44.26,1.01.31,2.24.16,3.64-.15,1.39-.55,2.97-1.19,4.7-.61,1.64-1.3,3.08-2.06,4.28-.37.58-.75,1.13-1.13,1.64-.05.06.03.15.1.11.22-.12.44-.26.66-.4.5-.33.98-.68,1.43-1.05,1.27-1.04,2.19-2.44,2.64-4.02.27-.95.57-1.89.89-2.82.53-1.53,1.1-2.96,1.69-4.25.59-1.28,1.07-2.24,1.45-2.86.42-.7,1.02-1.13,1.77-1.29.7-.15,1.38-.14,2,.03.63.17,1.15.49,1.54.94.42.49.51,1.06.26,1.63-.07.2-.27.65-.58,1.34-.31.7-.66,1.51-1.07,2.49-.39.94-.79,1.96-1.19,3.03-.39,1.05-.7,2.03-.91,2.91-.21.86-.29,1.57-.24,2.12.04.52.24.52.35.52.15,0,.42-.07.84-.42.4-.33.83-.74,1.26-1.2.44-.47.86-.97,1.25-1.5.35-.48.66-.9.91-1.26.22-.31.54-.49.94-.49s.79.2,1,.52h0c.2.31.19.68-.02,1.01-.26.41-.72,1.11-1.4,2.13-.68,1.01-1.49,2.04-2.41,3.08-.93,1.06-1.96,1.99-3.04,2.79-1.14.83-2.29,1.26-3.42,1.26-1.02,0-1.78-.36-2.26-1.06-.44-.64-.66-1.51-.66-2.57,0-.06,0-.11,0-.17,0-.13-.14-.2-.24-.12-.21.17-.43.35-.66.51-1.33,1-2.86,1.84-4.55,2.51-1.51.6-3.18.91-4.96.91-.24,0-.48,0-.72-.02-1.21,0-2.1-.39-2.67-1.14-.1-.13-.19-.27-.27-.41-.07-.11-.23-.09-.27.03-.18.61-.35,1.2-.51,1.77-.35,1.22-.64,2.27-.9,3.22-.26.95-.49,1.82-.67,2.58-.18.73-.3,1.33-.37,1.77v.02c-.17.84-.73,1.13-1.17,1.23-.2.04-.4.07-.61.07-.38,0-.77-.07-1.18-.22-.62-.22-1.17-.6-1.65-1.13-.5-.55-.75-1.24-.75-2.05,0-.16.04-.52.36-1.84.24-.97.56-2.18.95-3.6.27-.96.57-2,.91-3.12.04-.13-.11-.25-.23-.17-1.18.81-2.5,1.51-3.95,2.09-1.51.6-3.18.91-4.96.91-.24,0-.48,0-.72-.02-1.21,0-2.11-.39-2.67-1.14-.1-.13-.19-.27-.27-.41-.07-.11-.23-.09-.27.03-.18.61-.36,1.21-.52,1.77-.35,1.22-.64,2.27-.9,3.22-.26.95-.49,1.82-.67,2.58-.18.74-.3,1.33-.37,1.77v.02c-.17.84-.73,1.13-1.17,1.23-.2.04-.4.07-.61.07-.37,0-.77-.07-1.18-.22-.62-.22-1.17-.6-1.65-1.13-.5-.55-.75-1.24-.75-2.05,0-.17.04-.52.36-1.84.24-.98.56-2.19.95-3.6.23-.83.49-1.73.78-2.69.04-.15-.13-.25-.24-.15-.49.46-1.01.88-1.53,1.27-1.12.84-2.26,1.26-3.39,1.26-1.02,0-1.78-.36-2.26-1.06-.19-.28-.35-.61-.46-.98-.1-.33-.51-.43-.75-.18-.33.35-.7.67-1.09.95-.51.37-1.08.67-1.7.91-.63.24-1.32.37-2.04.37-.97,0-1.83-.3-2.54-.89-.69-.57-1.2-1.38-1.52-2.41-.31-1-.43-2.22-.34-3.64.08-1.4.4-2.98.94-4.68,1.15-3.53,2.65-6.16,4.46-7.81Zm-27.7-3.3c.67-1.22,1.66-2.41,2.93-3.53,1.28-1.12,2.89-2.09,4.79-2.89,1.91-.8,4.13-1.21,6.58-1.21,1.39,0,2.79.16,4.16.49,1.37.33,2.62.82,3.7,1.47,1.1.66,1.99,1.49,2.67,2.46.69.99,1.04,2.15,1.04,3.45,0,1.4-.31,2.71-.91,3.9-.6,1.18-1.43,2.25-2.46,3.2-1.02.94-2.23,1.76-3.59,2.45-1.13.57-2.32,1.06-3.56,1.45-.08.02-.11.07-.1.15.03.62.07,1.23.13,1.82.07.68.16,1.34.28,1.96.11.61.25,1.21.4,1.78.12.44.25.87.39,1.27.09.26.19.51.28.75.19.48.41.94.64,1.36.22.42.47.81.72,1.17.25.35.51.69.79.99.27.29.56.57.85.81.29.24.59.45.9.63.3.18.62.34.94.46.32.13.64.23.97.3.33.07.67.12,1.01.14.34.02.7.02,1.06-.02.36-.03.73-.09,1.1-.18.38-.09.76-.21,1.14-.35.39-.15.79-.33,1.18-.53.15-.08.3-.16.45-.25.49-.28,1.11-.15,1.44.31.33.46.25,1.09-.17,1.46-.21.18-.42.36-.62.53-.5.41-1,.79-1.5,1.13-.47.32-.94.62-1.41.89-.23.13-.48.27-.73.39-.48.24-.97.46-1.45.64-.48.18-.96.33-1.43.44-.47.11-.94.19-1.4.24-.33.03-.66.05-.98.05-.13,0-.26,0-.39,0-.44-.02-.89-.07-1.32-.16-.21-.04-.43-.09-.64-.15-.2-.06-.41-.12-.62-.2-.4-.15-.79-.33-1.17-.53-.37-.2-.74-.44-1.08-.7-.28-.21-.55-.44-.82-.69-.32-.3-.62-.62-.91-.98-.28-.35-.56-.72-.81-1.11-.25-.39-.5-.81-.72-1.24-.22-.43-.43-.89-.62-1.36-.19-.47-.37-.96-.53-1.47-.16-.5-.3-1.04-.43-1.58-.13-.55-.24-1.12-.33-1.69-.08-.51-.15-1.03-.2-1.57-.02-.16-.25-.18-.29-.03h0c-.2.69-.38,1.37-.54,2.02-.2.81-.38,1.55-.55,2.21-.16.65-.28,1.17-.34,1.55-.13.68-.57,1.1-1.28,1.24-.61.12-1.26.07-1.93-.15-.66-.22-1.27-.59-1.8-1.12-.55-.55-.83-1.24-.83-2.06,0-.66.17-1.71.51-3.21.33-1.46.81-3.19,1.43-5.14.61-1.94,1.35-4.08,2.21-6.35.73-1.95,1.55-3.92,2.44-5.86.29-.64.89-1.07,1.59-1.15,1.57-.18,2.94-.14,4.09.13.7.16,1.07.92.78,1.57-.74,1.67-1.43,3.33-2.05,4.94-.5,1.31-.97,2.61-1.42,3.87-.04.12.08.24.2.18.6-.28,1.19-.6,1.77-.97.95-.61,1.81-1.34,2.57-2.16.75-.82,1.37-1.75,1.83-2.77.46-1,.69-2.09.69-3.23,0-1.47-.41-2.56-1.21-3.23-.81-.68-1.96-1.02-3.41-1.02-1.54,0-2.95.37-4.19,1.09-1.27.74-2.37,1.65-3.27,2.71-.9,1.06-1.61,2.2-2.11,3.37-.5,1.17-.75,2.19-.75,3.04,0,.61-.32,1.05-.91,1.24-.51.17-1.08.14-1.66-.07-.56-.21-1.07-.62-1.54-1.22-.47-.6-.7-1.42-.7-2.43,0-.88.33-1.92,1.02-3.17Zm88.61,55.3c-3.01,4.26-6.96,7.31-11.92,8.99-11.59,3.92-26.23-1.54-30.71-11.85-4.48,10.31-19.12,15.77-30.71,11.85-4.96-1.68-8.91-4.73-11.92-8.99-2.36-3.34-3.96-7.02-4.7-11.12.41.36.82.72,1.23,1.08,4.98,4.36,9.4,4.63,14.7.73,2.44-1.79,4.62-3.93,7.07-5.71,1.89-1.38,3.89-2.75,6.05-3.6,3.74-1.48,7.53-.98,10.94,1.1,2.32,1.41,4.43,3.16,6.58,4.84.3.23.53.36.76.35.23.01.46-.12.76-.35,2.15-1.67,4.26-3.43,6.58-4.84,3.41-2.07,7.2-2.58,10.94-1.1,2.16.85,4.16,2.22,6.05,3.6,2.45,1.78,4.63,3.92,7.07,5.71,5.3,3.91,9.72,3.63,14.7-.73.41-.36.82-.72,1.23-1.08-.74,4.1-2.34,7.78-4.7,11.12Z"/>
    </g>
  </g>
</svg>