<?xml version="1.0" encoding="UTF-8"?>
<svg id="Capa_2" data-name="Capa 2" xmlns="http://www.w3.org/2000/svg" viewBox="0 0 135 134.18">
  <defs>
    <style>
      .cls-1 {
        fill: #fff;
      }
    </style>
  </defs>
  <g id="Capa_2-2" data-name="Capa 2">
    <path class="cls-1" d="m67.5,0C30.22,0,0,30.22,0,67.5c0,33.69,24.67,61.61,56.94,66.68v-47.17h-17.14v-19.51h.01s17.13,0,17.13,0v-14.87c0-16.92,10.08-26.26,25.5-26.26,0,0,0,0,0,0,0,0,0,0,0,0,7.39,0,15.11,1.32,15.11,1.32v16.61h-8.51c-8.38,0-11,5.2-11,10.54v12.66h18.72l-2.99,19.51h-15.73v47.17c32.27-5.06,56.95-32.99,56.95-66.68C135,30.22,104.78,0,67.5,0Z"/>
  </g>
</svg>