<?xml version="1.0" encoding="UTF-8"?>
<svg id="Capa_2" data-name="Capa 2" xmlns="http://www.w3.org/2000/svg" viewBox="0 0 135 135">
  <defs>
    <style>
      .cls-1 {
        fill: #fff;
      }
    </style>
  </defs>
  <g id="Capa_2-2" data-name="Capa 2">
    <g>
      <path class="cls-1" d="m69.71,30.53c-19.64,0-35.61,15.96-35.61,35.58,0,6.72,1.88,13.27,5.44,18.93l.85,1.35-3.6,13.13,13.47-3.53,1.3.77c5.46,3.24,11.72,4.96,18.11,4.96h.02c19.62-.01,35.59-15.97,35.59-35.59.01-9.51-3.69-18.44-10.41-25.17-6.72-6.72-15.65-10.43-25.16-10.43Zm20.92,50.87c-.89,2.5-5.16,4.78-7.22,5.09-1.84.28-4.18.39-6.74-.42-1.55-.49-3.55-1.15-6.1-2.25-10.74-4.63-17.75-15.44-18.28-16.15-.54-.71-4.37-5.8-4.37-11.06s2.76-7.85,3.74-8.92c.98-1.07,2.14-1.34,2.85-1.34s1.43.01,2.05.04c.66.04,1.54-.25,2.41,1.84.89,2.14,3.03,7.4,3.3,7.94.27.53.45,1.16.09,1.87s-.54,1.16-1.07,1.78c-.53.62-1.12,1.39-1.6,1.87-.54.53-1.09,1.11-.47,2.18s2.77,4.57,5.95,7.41c4.08,3.65,7.53,4.77,8.6,5.31,1.07.53,1.7.44,2.32-.27.63-.71,2.68-3.12,3.39-4.19.72-1.08,1.43-.9,2.41-.54s6.24,2.94,7.31,3.48h0c1.07.53,1.78.79,2.05,1.24.27.45.27,2.59-.62,5.09Z"/>
      <path class="cls-1" d="m67.5,0C30.22,0,0,30.22,0,67.5s30.22,67.5,67.5,67.5,67.5-30.22,67.5-67.5S104.78,0,67.5,0Zm2.19,108.95h-.02c-7.16,0-14.21-1.8-20.46-5.21l-22.7,5.95,6.07-22.18c-3.75-6.49-5.72-13.86-5.72-21.4.01-23.6,19.22-42.8,42.82-42.8,11.45,0,22.21,4.46,30.29,12.55h.01c8.08,8.09,12.53,18.84,12.53,30.28-.01,23.61-19.22,42.81-42.82,42.81Z"/>
    </g>
  </g>
</svg>