<?xml version="1.0" encoding="UTF-8"?>
<svg id="Capa_2" data-name="Capa 2" xmlns="http://www.w3.org/2000/svg" viewBox="0 0 135 135">
  <defs>
    <style>
      .cls-1 {
        fill: #fff;
      }
    </style>
  </defs>
  <g id="Capa_2-2" data-name="Capa 2">
    <g>
      <path class="cls-1" d="m100.63,42.44c-.77-1.99-1.69-3.4-3.18-4.89s-2.91-2.41-4.89-3.18c-1.5-.58-3.75-1.27-7.89-1.46-4.48-.21-5.82-.25-17.17-.25s-12.69.05-17.17.25c-4.14.19-6.39.88-7.89,1.46-1.99.77-3.4,1.69-4.89,3.18s-2.41,2.91-3.18,4.89c-.58,1.5-1.27,3.75-1.46,7.89-.21,4.48-.25,5.83-.25,17.17s.05,12.69.25,17.17c.19,4.14.88,6.39,1.46,7.89.77,1.99,1.69,3.4,3.18,4.89,1.49,1.49,2.91,2.41,4.89,3.18,1.5.58,3.75,1.27,7.89,1.46,4.48.21,5.82.25,17.17.25s12.69-.05,17.17-.25c4.14-.19,6.39-.88,7.89-1.46,1.99-.77,3.4-1.69,4.89-3.18s2.41-2.91,3.18-4.89c.58-1.5,1.27-3.75,1.46-7.89.21-4.48.25-5.83.25-17.17s-.05-12.69-.25-17.17c-.19-4.14-.88-6.39-1.46-7.89Zm-33.13,46.88c-12.05,0-21.82-9.77-21.82-21.82s9.77-21.82,21.82-21.82,21.82,9.77,21.82,21.82-9.77,21.82-21.82,21.82Zm22.69-39.41c-2.82,0-5.1-2.28-5.1-5.1s2.28-5.1,5.1-5.1,5.1,2.28,5.1,5.1-2.28,5.1-5.1,5.1Z"/>
      <path class="cls-1" d="m67.5,0C30.22,0,0,30.22,0,67.5s30.22,67.5,67.5,67.5,67.5-30.22,67.5-67.5S104.78,0,67.5,0Zm42.25,85.03c-.21,4.53-.93,7.62-1.98,10.32-1.08,2.8-2.54,5.17-4.9,7.53-2.37,2.36-4.74,3.81-7.53,4.9-2.71,1.06-5.8,1.77-10.32,1.98-4.53.21-5.98.26-17.52.26s-12.99-.05-17.52-.26c-4.53-.21-7.62-.93-10.32-1.98-2.8-1.08-5.17-2.54-7.53-4.9-2.36-2.37-3.81-4.74-4.9-7.53-1.06-2.71-1.77-5.8-1.98-10.32-.21-4.53-.26-5.98-.26-17.52s.05-12.99.26-17.52c.21-4.53.93-7.62,1.98-10.32,1.08-2.8,2.54-5.17,4.9-7.53,2.37-2.36,4.74-3.81,7.53-4.9,2.71-1.06,5.8-1.77,10.32-1.98,4.53-.21,5.98-.26,17.52-.26s12.99.05,17.52.26c4.53.21,7.62.93,10.32,1.98,2.8,1.08,5.17,2.54,7.53,4.9,2.36,2.37,3.81,4.74,4.9,7.53,1.06,2.71,1.77,5.8,1.98,10.32.21,4.53.26,5.98.26,17.52s-.05,12.99-.26,17.52Z"/>
      <circle class="cls-1" cx="67.5" cy="67.5" r="14.17" transform="translate(-13.7 17.31) rotate(-13.28)"/>
    </g>
  </g>
</svg>