<?xml version="1.0" encoding="UTF-8"?>
<svg id="Capa_2" data-name="Capa 2" xmlns="http://www.w3.org/2000/svg" viewBox="0 0 357.62 32.03">
  <defs>
    <style>
      .cls-1 {
        fill: #fff;
      }
    </style>
  </defs>
  <g id="Capa_1-2" data-name="Capa 1">
    <path class="cls-1" d="m15.27,20.69c0,2.46-.72,4.36-2.16,5.69-1.42,1.34-3.27,2-5.57,2H.48c-.13,0-.25-.04-.36-.12-.08-.11-.12-.23-.12-.36V.8c0-.13.04-.24.12-.32.11-.11.23-.16.36-.16h6.33c2.54,0,4.53.64,5.97,1.92,1.44,1.28,2.16,3.15,2.16,5.61,0,2.75-.98,4.72-2.93,5.89-.13.08-.16.16-.08.24,1.04.67,1.86,1.56,2.45,2.69.59,1.12.88,2.46.88,4.01ZM4.85,4.33c-.13,0-.2.07-.2.2v7.46c0,.13.07.2.2.2h2.04c1.1,0,1.95-.33,2.57-1s.92-1.62.92-2.85-.31-2.27-.92-2.97-1.47-1.04-2.57-1.04h-2.04Zm2.33,20c1.07,0,1.91-.37,2.53-1.12s.92-1.8.92-3.17-.31-2.47-.92-3.25c-.61-.8-1.46-1.2-2.53-1.2h-2.33c-.13,0-.2.07-.2.2v8.34c0,.13.07.2.2.2h2.33Zm18.52,4.37c-2.3,0-4.16-.69-5.57-2.08-1.39-1.39-2.08-3.23-2.08-5.53V7.62c0-2.3.69-4.14,2.08-5.53,1.42-1.39,3.27-2.08,5.57-2.08s4.16.69,5.57,2.08c1.42,1.39,2.12,3.23,2.12,5.53v13.47c0,2.3-.71,4.14-2.12,5.53-1.42,1.39-3.27,2.08-5.57,2.08Zm0-4.01c.91,0,1.64-.31,2.2-.92.56-.64.84-1.47.84-2.49V7.42c0-1.02-.28-1.83-.84-2.45-.56-.64-1.3-.96-2.2-.96s-1.64.32-2.2.96c-.53.61-.8,1.43-.8,2.45v13.87c0,1.02.27,1.84.8,2.49.56.61,1.3.92,2.2.92Zm26.81-4.01c0,2.46-.72,4.36-2.16,5.69-1.42,1.34-3.27,2-5.57,2h-7.06c-.13,0-.25-.04-.36-.12-.08-.11-.12-.23-.12-.36V.8c0-.13.04-.24.12-.32.11-.11.23-.16.36-.16h6.33c2.54,0,4.53.64,5.97,1.92,1.44,1.28,2.16,3.15,2.16,5.61,0,2.75-.98,4.72-2.93,5.89-.13.08-.16.16-.08.24,1.04.67,1.86,1.56,2.45,2.69.59,1.12.88,2.46.88,4.01Zm-10.42-16.36c-.13,0-.2.07-.2.2v7.46c0,.13.07.2.2.2h2.04c1.1,0,1.95-.33,2.57-1s.92-1.62.92-2.85-.31-2.27-.92-2.97-1.47-1.04-2.57-1.04h-2.04Zm2.33,20c1.07,0,1.91-.37,2.53-1.12s.92-1.8.92-3.17-.31-2.47-.92-3.25c-.61-.8-1.46-1.2-2.53-1.2h-2.33c-.13,0-.2.07-.2.2v8.34c0,.13.07.2.2.2h2.33Zm21.94,4.05c-.32,0-.49-.15-.52-.44l-.76-4.21c0-.13-.08-.2-.24-.2h-5.85c-.16,0-.24.07-.24.2l-.76,4.21c-.03.29-.2.44-.52.44h-3.65c-.37,0-.52-.17-.44-.52L59.29.76c.05-.29.23-.44.52-.44h4.25c.29,0,.47.15.52.44l5.93,27.1v.16c0,.24-.15.36-.44.36h-3.73Zm-6.9-8.7c-.03.13.04.2.2.2h4.45c.16,0,.23-.07.2-.2l-2.33-12.67c-.03-.08-.07-.12-.12-.12s-.09.04-.12.12l-2.29,12.67Zm13.43,12.35c-.16,0-.29-.05-.4-.16-.08-.08-.11-.2-.08-.36l1.04-8.98c.03-.29.19-.44.48-.44h3.21c.35,0,.48.17.4.52l-1.96,8.98c-.05.29-.23.44-.52.44h-2.16ZM103.21,3.85c0,.13-.05.25-.16.36-.08.08-.19.12-.32.12h-8.62c-.13,0-.2.07-.2.2v7.58c0,.13.07.2.2.2h5.09c.13,0,.24.05.32.16.11.08.16.19.16.32v3.09c0,.13-.05.25-.16.36-.08.08-.19.12-.32.12h-5.09c-.13,0-.2.07-.2.2v11.35c0,.13-.05.25-.16.36-.08.08-.19.12-.32.12h-3.69c-.13,0-.25-.04-.36-.12-.08-.11-.12-.23-.12-.36V.8c0-.13.04-.24.12-.32.11-.11.23-.16.36-.16h12.99c.13,0,.24.05.32.16.11.08.16.19.16.32v3.05Zm13.79,24.53c-.27,0-.44-.13-.52-.4l-3.41-11.51c-.05-.11-.12-.16-.2-.16h-2.12c-.13,0-.2.07-.2.2v11.39c0,.13-.05.25-.16.36-.08.08-.19.12-.32.12h-3.69c-.13,0-.25-.04-.36-.12-.08-.11-.12-.23-.12-.36V.8c0-.13.04-.24.12-.32.11-.11.23-.16.36-.16h7.54c1.42,0,2.66.35,3.73,1.04,1.1.67,1.94,1.63,2.53,2.89.61,1.23.92,2.65.92,4.25s-.32,3.09-.96,4.29c-.64,1.2-1.54,2.11-2.69,2.73-.11.03-.15.11-.12.24l3.93,12.07c.03.05.04.12.04.2,0,.24-.15.36-.44.36h-3.85Zm-6.25-24.05c-.13,0-.2.07-.2.2v7.98c0,.13.07.2.2.2h2.45c.96,0,1.74-.37,2.33-1.12.61-.75.92-1.76.92-3.05s-.31-2.3-.92-3.05c-.59-.78-1.36-1.16-2.33-1.16h-2.45Zm27.62-.48c0,.13-.05.25-.16.36-.08.08-.19.12-.32.12h-8.66c-.13,0-.2.07-.2.2v7.58c0,.13.07.2.2.2h5.13c.13,0,.24.05.32.16.11.08.16.19.16.32v3.09c0,.13-.05.25-.16.36-.08.08-.19.12-.32.12h-5.13c-.13,0-.2.07-.2.2v7.62c0,.13.07.2.2.2h8.66c.13,0,.24.05.32.16.11.08.16.19.16.32v3.05c0,.13-.05.25-.16.36-.08.08-.19.12-.32.12h-13.03c-.13,0-.25-.04-.36-.12-.08-.11-.12-.23-.12-.36V.8c0-.13.04-.24.12-.32.11-.11.23-.16.36-.16h13.03c.13,0,.24.05.32.16.11.08.16.19.16.32v3.05Zm10.04,24.85c-2.22,0-4.01-.67-5.37-2-1.36-1.34-2.04-3.09-2.04-5.25v-1.04c0-.13.04-.24.12-.32.11-.11.23-.16.36-.16h3.65c.13,0,.24.05.32.16.11.08.16.19.16.32v.8c0,1.04.25,1.88.76,2.53.53.64,1.22.96,2.04.96s1.51-.29,2.04-.88c.53-.61.8-1.42.8-2.41,0-.69-.15-1.3-.44-1.8-.29-.51-.71-.99-1.24-1.44s-1.39-1.11-2.57-1.96c-1.34-.96-2.42-1.82-3.25-2.57-.8-.75-1.48-1.64-2.04-2.69-.53-1.07-.8-2.3-.8-3.69,0-2.22.67-3.98,2-5.29,1.34-1.31,3.1-1.96,5.29-1.96s4.01.69,5.37,2.08c1.36,1.36,2.04,3.18,2.04,5.45v.96c0,.13-.05.25-.16.36-.08.08-.19.12-.32.12h-3.61c-.13,0-.25-.04-.36-.12-.08-.11-.12-.23-.12-.36v-1.04c0-1.04-.27-1.87-.8-2.49-.51-.64-1.19-.96-2.04-.96-.8,0-1.46.29-1.96.88-.51.56-.76,1.35-.76,2.37,0,.96.27,1.78.8,2.45.56.67,1.64,1.59,3.25,2.77,1.63,1.2,2.86,2.19,3.69,2.97.83.75,1.47,1.58,1.92,2.49.45.91.68,1.99.68,3.25,0,2.27-.68,4.1-2.04,5.49-1.36,1.36-3.15,2.04-5.37,2.04ZM169.32.8c0-.13.04-.24.12-.32.11-.11.23-.16.36-.16h3.69c.13,0,.24.05.32.16.11.08.16.19.16.32v27.1c0,.13-.05.25-.16.36-.08.08-.19.12-.32.12h-3.69c-.13,0-.25-.04-.36-.12-.08-.11-.12-.23-.12-.36v-11.35c0-.13-.07-.2-.2-.2h-5.09c-.13,0-.2.07-.2.2v11.35c0,.13-.05.25-.16.36-.08.08-.19.12-.32.12h-3.69c-.13,0-.25-.04-.36-.12-.08-.11-.12-.23-.12-.36V.8c0-.13.04-.24.12-.32.11-.11.23-.16.36-.16h3.69c.13,0,.24.05.32.16.11.08.16.19.16.32v11.3c0,.13.07.2.2.2h5.09c.13,0,.2-.07.2-.2V.8Zm31.38-.48c.13,0,.24.05.32.16.11.08.16.19.16.32v3.05c0,.13-.05.25-.16.36-.08.08-.19.12-.32.12h-5.09c-.13,0-.2.07-.2.2v23.37c0,.13-.05.25-.16.36-.08.08-.19.12-.32.12h-3.69c-.13,0-.25-.04-.36-.12-.08-.11-.12-.23-.12-.36V4.53c0-.13-.07-.2-.2-.2h-4.81c-.13,0-.25-.04-.36-.12-.08-.11-.12-.23-.12-.36V.8c0-.13.04-.24.12-.32.11-.11.23-.16.36-.16h14.95Zm17.73,3.53c0,.13-.05.25-.16.36-.08.08-.19.12-.32.12h-8.66c-.13,0-.2.07-.2.2v7.58c0,.13.07.2.2.2h5.13c.13,0,.24.05.32.16.11.08.16.19.16.32v3.09c0,.13-.05.25-.16.36-.08.08-.19.12-.32.12h-5.13c-.13,0-.2.07-.2.2v7.62c0,.13.07.2.2.2h8.66c.13,0,.24.05.32.16.11.08.16.19.16.32v3.05c0,.13-.05.25-.16.36-.08.08-.19.12-.32.12h-13.03c-.13,0-.25-.04-.36-.12-.08-.11-.12-.23-.12-.36V.8c0-.13.04-.24.12-.32.11-.11.23-.16.36-.16h13.03c.13,0,.24.05.32.16.11.08.16.19.16.32v3.05Zm15.56,24.53c-.32,0-.49-.15-.52-.44l-.76-4.21c0-.13-.08-.2-.24-.2h-5.85c-.16,0-.24.07-.24.2l-.76,4.21c-.03.29-.2.44-.52.44h-3.65c-.37,0-.52-.17-.44-.52l5.93-27.1c.05-.29.23-.44.52-.44h4.25c.29,0,.47.15.52.44l5.93,27.1v.16c0,.24-.15.36-.44.36h-3.73Zm-6.9-8.7c-.03.13.04.2.2.2h4.45c.16,0,.23-.07.2-.2l-2.33-12.67c-.03-.08-.07-.12-.12-.12s-.09.04-.12.12l-2.29,12.67Zm41.26,8.1c.08.11.12.21.12.32,0,.19-.13.28-.4.28h-3.97c-.24,0-.44-.09-.6-.28l-1.16-1.56c-.08-.08-.17-.09-.28-.04-1.92,1.5-4.13,2.24-6.61,2.24-2.3,0-4.12-.59-5.45-1.76-1.31-1.18-1.96-2.89-1.96-5.13,0-1.76.4-3.26,1.2-4.49.8-1.26,1.9-2.43,3.29-3.53.11-.08.12-.17.04-.28-1.28-1.79-2.11-3.1-2.49-3.93-.37-.86-.56-1.78-.56-2.77,0-2.08.61-3.74,1.84-4.97,1.26-1.26,2.91-1.88,4.97-1.88,1.36,0,2.58.29,3.65.88,1.07.56,1.91,1.36,2.53,2.41.61,1.04.92,2.24.92,3.61,0,1.66-.43,3.09-1.28,4.29-.83,1.18-1.96,2.31-3.41,3.41-.11.08-.12.17-.04.28.11.16.61.86,1.52,2.08l2.08,2.85c.05.05.11.08.16.08s.09-.03.12-.08c.67-.94,1.28-1.95,1.84-3.05.16-.29.39-.36.68-.2l2.73,1.56c.27.19.32.4.16.64-.91,1.74-1.84,3.25-2.81,4.53-.08.11-.09.2-.04.28.67.83,1.74,2.23,3.21,4.21Zm-11.91-23.57c-.69,0-1.26.27-1.68.8-.4.51-.6,1.18-.6,2,0,.59.09,1.12.28,1.6.21.48.71,1.28,1.48,2.41.08.13.17.16.28.08.83-.67,1.46-1.34,1.88-2,.45-.67.68-1.39.68-2.16s-.23-1.46-.68-1.96c-.43-.51-.98-.76-1.64-.76Zm-.56,20.53c1.2,0,2.43-.52,3.69-1.56.11-.08.12-.17.04-.28l-1.48-1.92-2.77-3.61c-.08-.11-.17-.12-.28-.04-1.6,1.34-2.41,2.73-2.41,4.17,0,.94.28,1.71.84,2.33s1.35.92,2.37.92Zm30.96,3.97c-2.22,0-4.01-.67-5.37-2-1.36-1.34-2.04-3.09-2.04-5.25v-1.04c0-.13.04-.24.12-.32.11-.11.23-.16.36-.16h3.65c.13,0,.24.05.32.16.11.08.16.19.16.32v.8c0,1.04.25,1.88.76,2.53.53.64,1.22.96,2.04.96s1.51-.29,2.04-.88c.53-.61.8-1.42.8-2.41,0-.69-.15-1.3-.44-1.8-.29-.51-.71-.99-1.24-1.44-.53-.45-1.39-1.11-2.57-1.96-1.34-.96-2.42-1.82-3.25-2.57-.8-.75-1.48-1.64-2.04-2.69-.53-1.07-.8-2.3-.8-3.69,0-2.22.67-3.98,2-5.29,1.34-1.31,3.1-1.96,5.29-1.96s4.01.69,5.37,2.08c1.36,1.36,2.04,3.18,2.04,5.45v.96c0,.13-.05.25-.16.36-.08.08-.19.12-.32.12h-3.61c-.13,0-.25-.04-.36-.12-.08-.11-.12-.23-.12-.36v-1.04c0-1.04-.27-1.87-.8-2.49-.51-.64-1.19-.96-2.04-.96-.8,0-1.46.29-1.96.88-.51.56-.76,1.35-.76,2.37,0,.96.27,1.78.8,2.45.56.67,1.64,1.59,3.25,2.77,1.63,1.2,2.86,2.19,3.69,2.97.83.75,1.47,1.58,1.92,2.49s.68,1.99.68,3.25c0,2.27-.68,4.1-2.04,5.49-1.36,1.36-3.15,2.04-5.37,2.04Zm17.94,0c-2.3,0-4.16-.69-5.57-2.08-1.39-1.39-2.08-3.23-2.08-5.53V7.62c0-2.3.69-4.14,2.08-5.53,1.42-1.39,3.27-2.08,5.57-2.08s4.16.69,5.57,2.08c1.42,1.39,2.12,3.23,2.12,5.53v13.47c0,2.3-.71,4.14-2.12,5.53-1.42,1.39-3.27,2.08-5.57,2.08Zm0-4.01c.91,0,1.64-.31,2.2-.92.56-.64.84-1.47.84-2.49V7.42c0-1.02-.28-1.83-.84-2.45-.56-.64-1.3-.96-2.2-.96s-1.64.32-2.2.96c-.53.61-.8,1.43-.8,2.45v13.87c0,1.02.27,1.84.8,2.49.56.61,1.3.92,2.2.92Zm12.02,3.69c-.13,0-.25-.04-.36-.12-.08-.11-.12-.23-.12-.36V.8c0-.13.04-.24.12-.32.11-.11.23-.16.36-.16h6.86c2.3,0,4.13.69,5.49,2.08,1.39,1.39,2.08,3.25,2.08,5.57v12.75c0,2.33-.69,4.18-2.08,5.57-1.36,1.39-3.19,2.08-5.49,2.08h-6.86Zm4.17-4.21c0,.13.07.2.2.2l2.41-.04c.88,0,1.59-.35,2.12-1.04.56-.72.86-1.67.88-2.85v-12.19c0-1.2-.28-2.15-.84-2.85-.53-.72-1.27-1.08-2.2-1.08h-2.37c-.13,0-.2.07-.2.2v19.64Zm24.86,4.21c-.32,0-.49-.15-.52-.44l-.76-4.21c0-.13-.08-.2-.24-.2h-5.85c-.16,0-.24.07-.24.2l-.76,4.21c-.03.29-.2.44-.52.44h-3.65c-.37,0-.52-.17-.44-.52l5.93-27.1c.05-.29.23-.44.52-.44h4.25c.29,0,.47.15.52.44l5.93,27.1v.16c0,.24-.15.36-.44.36h-3.73Zm-6.9-8.7c-.03.13.04.2.2.2h4.45c.16,0,.23-.07.2-.2l-2.33-12.67c-.03-.08-.07-.12-.12-.12s-.09.04-.12.12l-2.29,12.67Zm15.88,8.78c-.83,0-1.51-.27-2.04-.8-.53-.53-.8-1.22-.8-2.04s.27-1.51.8-2.04c.53-.53,1.22-.8,2.04-.8s1.5.27,2,.8c.53.53.8,1.22.8,2.04s-.27,1.51-.8,2.04c-.53.53-1.2.8-2,.8Z"/>
  </g>
</svg>